<svg id="Capa_2" data-name="Capa 2" xmlns="http://www.w3.org/2000/svg" viewBox="0 0 1000 1000"><defs><style>.cls-1{fill:#d3c1d3;}.cls-2{fill:#fff;}.cls-3{fill:#3c9558;}</style></defs><title>Mesa de trabajo 1 copia</title><g id="Capa_2-2" data-name="Capa 2"><g id="Figuras"><polygon class="cls-1" points="0 729 450 458.39 450 184.43 0 455.04 0 729"/><polygon class="cls-2" points="450 1000 0 729.39 0 455.43 450 726.04 450 1000"/><polygon class="cls-2" points="628.14 231.42 1000 455.04 1000 729 550 458.39 550 246.67 628.05 293.77 628.14 231.42"/><polygon class="cls-1" points="1000 455.43 550 726.04 550 1000 1000 729.39 1000 455.43"/><polygon class="cls-2" points="669 203.88 550 132.15 550 6.87 669 78.6 669 203.88"/><polygon class="cls-2" points="851.16 314.34 751.16 254.06 751.16 149.67 851.16 209.94 851.16 314.34"/><polygon class="cls-3" points="797.09 115.27 727.09 73.08 727.09 0 797.09 42.19 797.09 115.27"/></g></g></svg>